<svg width="48" height="48" viewBox="0 0 48 48" fill="none" xmlns="http://www.w3.org/2000/svg">
<rect width="48" height="48" rx="24" fill="#662828"/>
<g clip-path="url(#clip0_36_29)">
<path d="M18.7732 22.0964C15.6438 22.0964 13.688 25.484 15.2527 28.1941C16.8174 30.9043 20.7291 30.9043 22.2938 28.1941C22.6506 27.5762 22.8384 26.8751 22.8384 26.1615C22.8384 23.9164 21.0184 22.0964 18.7732 22.0964ZM18.7732 27.9038C17.4321 27.9038 16.5938 26.452 17.2644 25.2905C17.9349 24.129 19.6114 24.1289 20.282 25.2904C20.4349 25.5552 20.5155 25.8557 20.5155 26.1615C20.5155 27.1237 19.7354 27.9037 18.7732 27.9038ZM29.2266 22.0964C26.0972 22.0964 24.1413 25.484 25.706 28.1941C27.2707 30.9043 31.1824 30.9043 32.7471 28.1941C33.1039 27.5762 33.2917 26.8751 33.2917 26.1615C33.2917 23.9164 31.4717 22.0964 29.2266 22.0964ZM29.2266 27.9038C27.8854 27.9038 27.0472 26.452 27.7177 25.2905C28.3882 24.129 30.0647 24.1289 30.7353 25.2904C30.8883 25.5552 30.9688 25.8557 30.9688 26.1615C30.9688 27.1237 30.1887 27.9037 29.2266 27.9038ZM23.9999 9.32007C15.6735 9.32007 8.90063 15.8331 8.90063 23.8386C8.90063 28.7894 11.5532 33.4208 15.8695 36.0748V38.3571C15.8695 39.6401 16.9095 40.6801 18.1925 40.6801H29.8073C31.0903 40.6801 32.1303 39.64 32.1303 38.3571V36.0748C36.4466 33.4208 39.0992 28.7894 39.0992 23.8386C39.0992 15.8331 32.3263 9.32007 23.9999 9.32007ZM30.4055 34.3921C30.0361 34.5969 29.8071 34.9861 29.8073 35.4084V38.3571H27.4843V34.8727C27.4843 33.9786 26.5164 33.4197 25.7421 33.8668C25.3828 34.0743 25.1614 34.4577 25.1614 34.8727V38.3571H22.8384V34.8727C22.8384 33.9786 21.8705 33.4197 21.0962 33.8668C20.7368 34.0743 20.5155 34.4577 20.5155 34.8727V38.3571H18.1925V35.4084C18.1927 34.9861 17.9636 34.5969 17.5943 34.3921C13.6642 32.2143 11.2236 28.1709 11.2236 23.8386C11.2236 17.1136 16.9555 11.643 23.9999 11.643C31.0443 11.643 36.7762 17.1136 36.7762 23.8386C36.7762 28.1695 34.3356 32.2143 30.4055 34.3921Z" fill="#DF5C5C"/>
</g>
<defs>
<clipPath id="clip0_36_29">
<rect width="32" height="32" fill="white" transform="translate(8 9)"/>
</clipPath>
</defs>
</svg>
