<svg width="16" height="17" viewBox="0 0 16 17" fill="none" xmlns="http://www.w3.org/2000/svg">
<g clip-path="url(#clip0_106_8)">
<path d="M15.6102 15.1347C16.0371 15.5616 15.8418 16.2907 15.2585 16.447C14.9878 16.5195 14.699 16.4421 14.5009 16.244L7.99991 9.74201L1.49895 16.244C1.07198 16.6709 0.342912 16.4756 0.186631 15.8923C0.114106 15.6216 0.191494 15.3328 0.38965 15.1347L6.89159 8.6337L0.38965 2.13274C-0.037319 1.70577 0.158031 0.976701 0.741281 0.82042C1.01197 0.747895 1.30079 0.825283 1.49895 1.02344L7.99991 7.52538L14.5009 1.02344C14.9278 0.59647 15.6569 0.79182 15.8132 1.37507C15.8857 1.64576 15.8083 1.93458 15.6102 2.13274L9.10822 8.6337L15.6102 15.1347Z" fill="#39FFFF"/>
</g>
<defs>
<clipPath id="clip0_106_8">
<rect width="16" height="16" fill="white" transform="translate(0 0.633789)"/>
</clipPath>
</defs>
</svg>
