<svg width="48" height="48" viewBox="0 0 48 48" fill="none" xmlns="http://www.w3.org/2000/svg">
<rect width="48" height="48" rx="24" fill="#286628"/>
<path d="M24.0117 9.32007C11.9413 9.32007 4.39723 22.3867 10.4325 32.8401C16.4677 43.2934 31.5558 43.2934 37.591 32.8401C38.9672 30.4564 39.6917 27.7525 39.6917 25.0001C39.6826 16.344 32.6678 9.32922 24.0117 9.32007ZM24.0117 38.2678C13.7983 38.2682 7.41494 27.2121 12.5213 18.3667C17.6276 9.52138 30.3945 9.52081 35.5016 18.3657C36.6663 20.3828 37.2794 22.6709 37.2794 25.0001C37.2711 32.3242 31.3358 38.2594 24.0117 38.2678ZM16.7748 21.9847C16.7748 20.5919 18.2825 19.7215 19.4887 20.4178C20.6948 21.1142 20.6948 22.8552 19.4887 23.5515C19.2137 23.7103 18.9016 23.7939 18.5841 23.7939C17.5848 23.794 16.7748 22.9839 16.7748 21.9847ZM31.2487 21.9847C31.2487 23.3774 29.741 24.2479 28.5348 23.5515C27.3287 22.8552 27.3287 21.1142 28.5348 20.4178C28.8099 20.259 29.1218 20.1754 29.4394 20.1755C30.4386 20.1755 31.2487 20.9855 31.2487 21.9847ZM31.0873 29.2216C29.5359 31.9038 26.9563 33.4431 24.0117 33.4431C21.0672 33.4431 18.4891 31.9053 16.9377 29.2216C16.4395 28.438 16.9765 27.4091 17.9041 27.3695C18.3711 27.3495 18.8076 27.6013 19.0243 28.0155C20.1505 29.9619 21.9206 31.0308 24.0117 31.0308C26.1029 31.0308 27.8729 29.9604 28.9977 28.0155C29.4619 27.2111 30.6228 27.211 31.0872 28.0152C31.3028 28.3885 31.3028 28.8483 31.0873 29.2216Z" fill="#5CDF5C"/>
</svg>
