<svg width="32" height="32" viewBox="0 0 32 32" fill="none" xmlns="http://www.w3.org/2000/svg">
<rect width="32" height="32" rx="16" fill="#215767"/>
<path opacity="0.15" d="M8.3314 17.0474L16 25L23.6686 17.0474C24.5211 16.1633 25 14.9643 25 13.7141C25 11.1106 22.9648 9 20.4543 9C19.2487 9 18.0925 9.49666 17.24 10.3807L16 11.6667L14.76 10.3807C13.9075 9.49666 12.7513 9 11.5457 9C9.03517 9 7 11.1106 7 13.7141C7 14.9643 7.47892 16.1633 8.3314 17.0474Z" fill="#39FFFF"/>
<path d="M8.3314 17.0474L16 25L23.6686 17.0474C24.5211 16.1633 25 14.9643 25 13.7141C25 11.1106 22.9648 9 20.4543 9C19.2487 9 18.0925 9.49666 17.24 10.3807L16 11.6667L14.76 10.3807C13.9075 9.49666 12.7513 9 11.5457 9C9.03517 9 7 11.1106 7 13.7141C7 14.9643 7.47892 16.1633 8.3314 17.0474Z" stroke="#39FFFF" stroke-width="1.5" stroke-linecap="round" stroke-linejoin="round"/>
</svg>
