<svg width="24" height="24" viewBox="0 0 24 24" fill="none" xmlns="http://www.w3.org/2000/svg">
<g clip-path="url(#clip0_48_395)">
<path d="M13.3569 17.88C13.3569 18.9246 12.2261 19.5774 11.3215 19.0551C10.4169 18.5328 10.4169 17.2271 11.3215 16.7049C11.5278 16.5858 11.7618 16.5231 12 16.5231C12.7494 16.5231 13.3569 17.1306 13.3569 17.88ZM12 5.66768C9.50551 5.66768 7.47691 7.49388 7.47691 9.73845V10.1908C7.47691 10.8871 8.23077 11.3224 8.83384 10.9742C9.11373 10.8126 9.28615 10.5139 9.28615 10.1908V9.73845C9.28615 8.4946 10.504 7.47691 12 7.47691C13.496 7.47691 14.7138 8.4946 14.7138 9.73845C14.7138 10.9823 13.496 12 12 12C11.5004 12 11.0954 12.405 11.0954 12.9046V13.8092C11.0954 14.5056 11.8492 14.9408 12.4523 14.5926C12.7322 14.4311 12.9046 14.1324 12.9046 13.8092V13.7278C14.9671 13.349 16.5231 11.7037 16.5231 9.73845C16.5231 7.49388 14.4945 5.66768 12 5.66768ZM23.76 12C23.76 21.0528 13.96 26.7109 6.11999 22.1844C-1.72001 17.658 -1.72001 6.34195 6.11999 1.81553C7.90774 0.783375 9.93568 0.23999 12 0.23999C18.492 0.246853 23.7531 5.50796 23.76 12ZM21.9508 12C21.9508 4.33988 13.6585 -0.447685 7.02461 3.38237C0.390761 7.21242 0.390761 16.7876 7.02461 20.6176C8.53732 21.491 10.2533 21.9508 12 21.9508C17.4931 21.9445 21.9445 17.4931 21.9508 12Z" fill="white"/>
</g>
<defs>
<clipPath id="clip0_48_395">
<rect width="24" height="24" fill="white"/>
</clipPath>
</defs>
</svg>
