<svg width="14" height="15" viewBox="0 0 14 15" fill="none" xmlns="http://www.w3.org/2000/svg">
<g clip-path="url(#clip0_31_813)">
<path d="M13.643 12.8978C12.6394 11.1627 11.0927 9.91853 9.28779 9.32874C12.4262 7.46042 12.3652 2.89528 9.17797 1.11149C5.99075 -0.672292 2.06773 1.66311 2.11654 5.31522C2.13858 6.96495 3.01606 8.48478 4.43375 9.32874C2.6288 9.91787 1.08218 11.162 0.0785479 12.8978C-0.133623 13.2437 0.108271 13.6896 0.513953 13.7004C0.712185 13.7057 0.896607 13.5992 0.991238 13.425C2.23275 11.2793 4.42716 9.99826 6.86077 9.99826C9.29438 9.99826 11.4888 11.2793 12.7303 13.425C12.924 13.7816 13.4311 13.7949 13.6431 13.4488C13.7467 13.2797 13.7467 13.0668 13.643 12.8978ZM3.17048 5.25361C3.17048 2.41283 6.24572 0.637337 8.70591 2.05773C11.1661 3.47812 11.1661 7.0291 8.70591 8.44949C8.14492 8.77338 7.50854 8.94389 6.86077 8.94389C4.82358 8.94172 3.17266 7.29079 3.17048 5.25361Z" fill="white"/>
</g>
<defs>
<clipPath id="clip0_31_813">
<rect width="14" height="14" fill="white" transform="translate(0 0.5)"/>
</clipPath>
</defs>
</svg>
