<svg width="24" height="24" viewBox="0 0 24 24" fill="none" xmlns="http://www.w3.org/2000/svg">
<path d="M14.3834 1.53899C14.1052 1.4034 13.774 1.43801 13.5298 1.62821L6.44948 7.13411H1.86206C0.966187 7.13407 0.23999 7.86031 0.23999 8.75618V15.2445C0.23999 16.1403 0.966187 16.8666 1.86206 16.8665H6.44948L13.5298 22.3724C14.0227 22.7556 14.7456 22.4615 14.831 21.843C14.836 21.8065 14.8386 21.7696 14.8386 21.7327V2.26791C14.8387 1.95791 14.662 1.67501 14.3834 1.53899ZM1.86206 8.75618H5.91723V15.2445H1.86206V8.75618ZM13.2165 20.0742L7.5393 15.6591V8.34154L13.2165 3.92647V20.0742ZM18.691 9.31985C20.0407 10.852 20.0407 13.1486 18.691 14.6808C18.2708 15.1425 17.5083 14.9762 17.3185 14.3814C17.2332 14.1141 17.2922 13.8216 17.4745 13.6082C18.2838 12.689 18.2838 11.3116 17.4745 10.3924C17.069 9.91769 17.3295 9.18204 17.9434 9.06827C18.2193 9.01712 18.5021 9.11229 18.691 9.31985ZM23.76 12.0003C23.7612 13.9957 23.0258 15.9212 21.6949 17.4079C21.2712 17.8664 20.51 17.6943 20.3247 17.0981C20.2415 16.8301 20.3027 16.5382 20.4864 16.3262C22.6892 13.8633 22.6892 10.1384 20.4864 7.67547C20.0627 7.21695 20.2943 6.47167 20.9032 6.33397C21.1948 6.26803 21.4991 6.36787 21.6949 6.59376C23.0261 8.07979 23.7616 10.0052 23.76 12.0003Z" fill="white"/>
</svg>
