<svg width="24" height="24" viewBox="0 0 24 24" fill="none" xmlns="http://www.w3.org/2000/svg">
<path d="M14.3831 1.53899C14.1049 1.40341 13.7737 1.43801 13.5295 1.6282L6.44935 7.13401H1.86202C0.966168 7.13396 0.23999 7.86019 0.23999 8.75604V15.2442C0.23999 16.14 0.966168 16.8663 1.86202 16.8662H6.44935L13.5295 22.372C14.0224 22.7552 14.7453 22.4611 14.8307 21.8427C14.8358 21.8061 14.8383 21.7692 14.8383 21.7323V2.26789C14.8384 1.9579 14.6617 1.67499 14.3831 1.53899ZM1.86202 8.75604H5.91712V15.2442H1.86202V8.75604ZM13.2163 20.0738L7.53916 15.6588V8.3414L13.2163 3.92643V20.0738ZM23.5223 13.8594C23.964 14.3011 23.7619 15.0553 23.1585 15.217C22.8785 15.292 22.5797 15.212 22.3747 15.007L20.5155 13.1467L18.6562 15.007C18.2145 15.4487 17.4603 15.2466 17.2986 14.6432C17.2236 14.3632 17.3036 14.0644 17.5086 13.8594L19.3689 12.0001L17.5086 10.1409C17.0669 9.69915 17.269 8.94492 17.8724 8.78324C18.1524 8.70821 18.4512 8.78826 18.6562 8.99327L20.5155 10.8535L22.3747 8.99327C22.8164 8.55155 23.5707 8.75365 23.7323 9.35704C23.8074 9.63707 23.7273 9.93586 23.5223 10.1409L21.662 12.0001L23.5223 13.8594Z" fill="white"/>
</svg>
